PathFileType	4	(X/Y/Z)	1_2_rein_80_p1_0-323_filt_butterworth.trc
DataRate	CameraRate	NumFrames	NumMarkers	Units	OrigDataRate	OrigDataStartFrame	OrigNumFrames
59.0	59.0	6	27	m	59.0	0	323
Frame#	Time	RHip			RKnee			RAnkle			RBigToe			RSmallToe			RHeel			LHip			LKnee			LAnkle			LBigToe			LSmallToe			LHeel			Neck			Head			Nose			RShoulder			RElbow			RWrist			RThumb			RIndex			RPinky			LShoulder			LElbow			LWrist			LThumb			LIndex			LPinky			
		X1	Y1	Z1	X2	Y2	Z2	X3	Y3	Z3	X4	Y4	Z4	X5	Y5	Z5	X6	Y6	Z6	X7	Y7	Z7	X8	Y8	Z8	X9	Y9	Z9	X10	Y10	Z10	X11	Y11	Z11	X12	Y12	Z12	X13	Y13	Z13	X14	Y14	Z14	X15	Y15	Z15	X16	Y16	Z16	X17	Y17	Z17	X18	Y18	Z18	X19	Y19	Z19	X20	Y20	Z20	X21	Y21	Z21	X22	Y22	Z22	X23	Y23	Z23	X24	Y24	Z24	X25	Y25	Z25	X26	Y26	Z26	X27	Y27	Z27	
0	0.0	0.3583243198846698	0.26751271345275307	1.1116752551504157	0.3456177886337023	0.35705370379249146	1.5166202939000282	0.3345964079893423	0.4262115662838911	1.9710426854072107	0.34006712687700347	0.1991622186123709	1.9945660653905133	0.3970512147874863	0.2627354152397853	2.0162880586775387	0.32764628483179353	0.45338206052401686	2.0146751446184994	0.12723376124477112	0.2820898342918499	1.1340468823094485	0.1651422084012072	0.30642378790604596	1.5005446003121916	0.18128242730619387	0.3746988287573035	1.935415656825475	0.17406460258180706	0.1942284179808551	1.9959935007278005	0.12527768181768273	0.22283465785392875	1.9794495904697427	0.20151109511005477	0.42576014121111083	1.9873356966489977	0.2501486675198867	0.17965650565706814	0.47065448756966805	0.2402653622956896	0.08711828338185736	0.22137977136309586	0.22496957238630372	0.04004516486316542	0.3777676995343534	0.43674109126023175	0.1949259316632187	0.5523468213135517	0.4630492672926261	0.20299119368294638	0.8808756579221201	0.31754387450976257	0.10897004344702071	1.080379598250244	0.2462193829279487	0.07907615616348286	1.1528943916753913	0.23786199700239863	0.09492790145693436	1.1728829680648565	0.2444743587814825	0.11918059194845959	1.1772755080754973	0.0851304984220371	0.22929629448183597	0.5595691494964002	0.04661380064492938	0.18657949794451864	0.8526100545149624	0.17948771447312586	0.10583637798430445	1.06494160858514	0.2946935983180312	0.041676666722120184	1.1059489900739445	0.27484872475521815	0.08555477173318149	1.1493866634604133	0.2346419627296832	0.09911605535938102	1.1871604333084633
1	0.0169491525423728	0.3609122634807338	0.25927995601776266	1.110896486457802	0.34575127956130536	0.35796084475392453	1.5174975728528473	0.3346274191676938	0.42635292072466024	1.9710893851724673	0.34088070490641637	0.20064989836653319	1.9959245855920102	0.39714334364249976	0.2624414920059636	2.0161649317604002	0.32787729966208945	0.4535320147863233	2.015580756057978	0.12723541167038635	0.28080400818774176	1.133847920222475	0.16518231934315317	0.31013452309242506	1.5023028146606385	0.18104808325706917	0.3762136282904924	1.9332267026740655	0.17092738384988534	0.2021515085182495	1.9953518485506754	0.12493165380677028	0.22457910673660217	1.976234212179801	0.20141751032062838	0.42690597632812827	1.9859643592218035	0.24967427868008446	0.18081967725229614	0.4686695281754362	0.2408884066700361	0.08879936982777743	0.21920987857059945	0.22507042668628444	0.04013592596494734	0.377746020922427	0.43689150995145176	0.19515522164464594	0.5552428026982287	0.46170460181517625	0.1990927777618898	0.8803679059612461	0.31408462851482516	0.10184582949608663	1.0792863783427402	0.2463648121235803	0.07918216150379065	1.1538541472603157	0.23788563278411987	0.09492857863995938	1.172874445713266	0.2431909633574432	0.12335732779827481	1.180073647816121	0.08516809375681125	0.2293297084758244	0.5595601393477836	0.043616985226583756	0.19400331074659402	0.8540675133578343	0.18117620874715418	0.10145169396797424	1.0636652113777665	0.2922743249272053	0.050520977602909835	1.1100404046406656	0.2747436717801053	0.08641551808725961	1.1487850591005533	0.23478428225150683	0.09986532577792956	1.1886616348791796
2	0.0338983050847457	0.3625492568147534	0.2542173461841709	1.111237652858971	0.3458079934958026	0.3580351207471672	1.518565439835148	0.33464191101331336	0.4264374022815791	1.9711253433566935	0.34137655905488634	0.2016128579752172	1.9956453414543387	0.39711701930890697	0.2621173541368164	2.0159757316663	0.32824224568914695	0.4540422640151311	2.0171333842206542	0.12726574580981267	0.27977351853081867	1.133987926562452	0.1651336530488394	0.3127596046131298	1.5035459323759222	0.18089775053622323	0.37713272579842083	1.931924681351643	0.16906778366439962	0.20689418282266553	1.9949359573821384	0.12469100310197326	0.2254861191159095	1.9747485024488818	0.2013100249615029	0.42797895490492793	1.98463645827822	0.24944999353508923	0.18127887116255076	0.4675745652081658	0.24142190431292107	0.09051701395771476	0.21779172848464323	0.22472271328591575	0.04001049771908749	0.3777495725300307	0.43695340390794946	0.19544384265118545	0.5578759419639386	0.46042791913922837	0.19536609476206301	0.8798917265852302	0.3115560987257911	0.09712059568717812	1.078960905865817	0.24578897291312818	0.07887666692942415	1.1541822136439635	0.23788672531506344	0.09492629424447725	1.17286285172591	0.24199808721132043	0.12754932563463878	1.182833141031074	0.08518344958805942	0.2293536808537901	0.5595593415016412	0.04183920823042825	0.19841241531918694	0.8549343984748354	0.1828328247653113	0.09702907012780321	1.0624228602759485	0.29061363264367623	0.0563714824583277	1.1136672086665165	0.2746389489777885	0.0867690867772789	1.1489391528544888	0.2349299212521001	0.10055226724031062	1.1901048444856686
3	0.0508474576271186	0.3631759905450637	0.2525088358167719	1.112352320081825	0.3457465300595608	0.35717407801976786	1.5195308316313352	0.334642234735543	0.4264544687051899	1.9711423863014137	0.3415089625895095	0.2019276954089076	1.9942198105093358	0.39699494146567743	0.26186771836481054	2.015795789791386	0.3286707263926662	0.4548691065536793	2.0189696301555653	0.12727019786631494	0.2790688177089589	1.1339873456778236	0.1646724226453125	0.31441317955045284	1.5042149191924268	0.18082566711452236	0.37738316506906433	1.9315427472629443	0.1685661290095696	0.2082557261070537	1.9949484406755558	0.12459318737680014	0.22559935111036156	1.974789228914066	0.20122199305491434	0.4287044937203158	1.983705545297199	0.24953517951373344	0.18089442016252602	0.4676411652544954	0.2418807291818322	0.09227727233674053	0.21725869879234921	0.22368279548036368	0.03955536819651986	0.3777936041407734	0.43689248566503336	0.1958577808069815	0.5593547427003343	0.4595468239990368	0.1928022201418223	0.8795870247539546	0.3103736288970592	0.09520878780714981	1.0793430665911197	0.2447107956149568	0.07848635089604707	1.1546301791354854	0.23786925346375754	0.09491816778397741	1.1728208452853244	0.24122938198671973	0.13065506272517788	1.1848396672789625	0.08518212369811545	0.22936039222118149	0.559564666883593	0.04135675460680358	0.19961693360496652	0.8551615861685062	0.18405995976028647	0.09365600803585038	1.0615187828434618	0.2898805084066532	0.05709471283215496	1.1157614573366936	0.274535742232479	0.08665182703295474	1.149545805014017	0.23503873890122345	0.10100660997279487	1.1911042248839026
4	0.0677966101694915	0.363188490413821	0.2527242935909342	1.1131851363782501	0.3456260654675726	0.35614681930257447	1.5199770401185397	0.3346386042074287	0.4264315600534135	1.971141594409076	0.3414278141763646	0.20185273346870053	1.9936160781619534	0.396864885155781	0.26180783175131606	2.0157063929328327	0.3289348468278879	0.455746566802223	2.01993954860729	0.1272281931341598	0.2786658654138173	1.133622019870908	0.16345184281929823	0.31616874723478167	1.5052670022464099	0.18077674704681418	0.3772929576829036	1.9315803118311092	0.1687023143143897	0.20803947811107726	1.9955593185102996	0.12458478931503257	0.2254513579374599	1.9751846900542178	0.201175482263306	0.42892307285440107	1.9833381380600397	0.2497150421064135	0.18031575203018338	0.4685391162476075	0.24230917337035818	0.09389627895999383	0.21725759257680433	0.2222837830903392	0.03892173700285884	0.3778628042283232	0.43677898357369693	0.19645957911086198	0.5592364827563694	0.4591995889942679	0.19193287033538642	0.8795478101216508	0.3101869979782924	0.09495591074552448	1.0800038981238953	0.24395541037052645	0.07854536132850003	1.1557745408831543	0.23785804252170634	0.09489040321537669	1.172713443533469	0.24093963943027208	0.13174763532006278	1.1856467057764535	0.08517992260885149	0.2293452494877831	0.5595696371460193	0.041480738459059543	0.1993086021162576	0.855071645357175	0.18454005386862074	0.09226175118825719	1.061187504356102	0.2897997057286056	0.05270332837992457	1.1154426451958013	0.27446607817007845	0.08638866781170279	1.1499666393337376	0.23508410749377073	0.10117387586821622	1.1914970425352378
5	0.0847457627118644	0.3626556380630245	0.2544012061612118	1.1135504731592973	0.3455421237133497	0.35560618677481803	1.5199506856648488	0.3346325641319939	0.42640285995905985	1.9711339892054798	0.3412732822531889	0.2016337402811825	1.9949062452908022	0.39678510351855123	0.2619337079188319	2.0156894119225344	0.32891454679411625	0.4565755078970861	2.019445044405419	0.12718322903238471	0.2785086101807497	1.1332593091812853	0.1617684671555677	0.31800795333342935	1.5072491363494611	0.1807207127934139	0.37716303647458405	1.931661083683785	0.16890076855398967	0.2076727739579934	1.9965617476884527	0.12457298365639906	0.22536702576469805	1.9753167599261163	0.20115176642439728	0.42877151898831484	1.9832966519772806	0.24949730984582072	0.1809866476307121	0.469508585219167	0.24252224284853618	0.09430446291660313	0.21746049994966368	0.22122266181803926	0.03843269997257701	0.37791989478975874	0.43669890502997094	0.19714325849236597	0.5582264350931643	0.4591456664874122	0.19222503033675883	0.8797259793040535	0.3103231161660676	0.09511377087552349	1.0807105185152297	0.24402951687388238	0.07900396271848656	1.1569741535830667	0.23787298677938956	0.09482803320522873	1.1725772501468752	0.24064646697121417	0.1306926913634887	1.1854977456398514	0.08518269967349351	0.2293139538863548	0.5595713389820577	0.04165843785741259	0.19883548634204384	0.8549319578804827	0.1841832658546116	0.09315682136459241	1.0614951920848221	0.2899977330842771	0.046401862435408815	1.113293466250435	0.2744622941851706	0.08618520409484796	1.150063318651476	0.23506852210919957	0.10118918307520475	1.191536163368539
